#!OML:ASF \\sashay\E\basketball\basketball\Project 1\Capture day 1\Session 1\Subject.ASF
:FULLY-SPECIFIED
:DEGREES
180
root 34.5823 15.0186 -21.2967 -45.5956 105.109 -49.8937
lowerback 11.8787 -3.42126 -9.97103
upperback 7.50494 -4.95533 -2.50367
thorax 1.97261 -2.57204 3.40292
lowerneck -5.97101 -2.99446 -15.2721
upperneck -10.6502 -1.45571 21.9009
head -1.61171 -0.413086 9.51604
rclavicle -3.72349e-014 -2.54444e-014
rhumerus -37.8647 -6.28482 -75.2796
rradius 59.9602
rwrist -12.1696
rhand -38.185 36.0125
rfingers 7.12502
rthumb -11.2177 6.33245
lclavicle -3.72349e-014 -2.54444e-014
lhumerus -31.5187 2.28282 75.7385
lradius 77.7088
lwrist 0.0476421
lhand -23.0111 29.5631
lfingers 7.12502
lthumb 3.43238 59.5152
rfemur -38.6518 -9.76186 26.4522
rtibia 37.8701
rfoot -4.87467 3.08226
rtoes 26.9685
lfemur 19.8135 9.76605 -15.3718
ltibia 72.143
lfoot -0.214822 10.6405
ltoes -21.7727
181
root 35.0893 14.9346 -21.4172 -40.9925 104.519 -45.009
lowerback 11.9149 -3.49003 -8.02465
upperback 7.56094 -4.8842 -2.25632
thorax 1.81484 -2.47727 2.5971
lowerneck -6.54464 -3.2941 -14.0949
upperneck -10.3923 -1.9915 20.6143
head -1.39869 -0.670957 8.82363
rclavicle 3.90472e-014 2.01269e-014
rhumerus -38.2056 -7.57178 -74.2482
rradius 60.1721
rwrist -12.4221
rhand -37.9816 35.3082
rfingers 7.12502
rthumb -11.0215 5.61752
lclavicle 3.90472e-014 2.01269e-014
lhumerus -32.8797 1.77316 74.9472
lradius 82.0617
lwrist 1.23116
lhand -21.579 29.3531
lfingers 7.12502
lthumb 4.81531 59.2784
rfemur -38.5525 -9.91936 28.0454
rtibia 41.0552
rfoot -7.75068 0.540769
rtoes 15.5202
lfemur 17.3362 10.1792 -12.3713
ltibia 77.9941
lfoot -1.52224 11.6693
ltoes -16.9012
182
root 35.5325 14.8143 -21.5021 -37.2805 103.51 -41.1556
lowerback 12.4945 -3.15753 -6.74841
upperback 7.41445 -4.40501 -1.69657
thorax 1.22009 -2.19617 2.48356
lowerneck -4.93339 -3.17867 -14.9059
upperneck -12.2975 -1.63198 21.3018
head -2.24473 -0.572576 9.28706
rclavicle -1.37658e-014 -1.66979e-014
rhumerus -38.5462 -8.91523 -72.9518
rradius 60.2862
rwrist -12.3131
rhand -38.308 34.4331
rfingers 7.12502
rthumb -11.3363 4.75945
lclavicle -1.37658e-014 -1.66979e-014
lhumerus -33.9806 1.56409 74.5563
lradius 86.2222
lwrist 2.3117
lhand -20.7465 29.2154
lfingers 7.12502
lthumb 5.61913 59.1209
rfemur -39.1724 -7.55108 29.2924
rtibia 44.5131
rfoot -9.39682 -3.82125
rtoes 6.88259
lfemur 14.0737 11.1587 -9.04878
ltibia 84.1621
lfoot -1.93957 11.3037
ltoes -13.3161
183
root 35.9638 14.6541 -21.6102 -33.6571 103.376 -37.0085
lowerback 12.5802 -2.8433 -5.80354
upperback 7.95661 -3.84097 -1.10401
thorax 1.66411 -1.90634 2.50843
lowerneck -5.60955 -4.20397 -15.3677
upperneck -12.8489 -2.86126 21.487
head -2.03418 -1.12914 9.41003
rclavicle -2.85256e-014 4.05521e-014
rhumerus -38.0293 -10.9184 -71.3175
rradius 60.0025
rwrist -11.9706
rhand -37.5556 35.8624
rfingers 7.12502
rthumb -10.6106 6.15026
lclavicle -2.85256e-014 4.05521e-014
lhumerus -33.9346 1.44614 74.9662
lradius 89.9347
lwrist 2.63968
lhand -20.3824 29.1338
lfingers 7.12502
lthumb 5.9706 59.0297
rfemur -38.8446 -6.11276 29.7371
rtibia 47.5007
rfoot -11.5255 -6.64532
rtoes 7.99803
lfemur 11.2115 11.0897 -6.98348
ltibia 89.714
lfoot -2.23004 10.421
ltoes -13.5741
184
root 36.42 14.5964 -21.7053 -24.4949 101.832 -27.6177
lowerback 12.4947 -2.51876 -3.31708
upperback 8.3739 -3.13823 -0.237583
thorax 1.97283 -1.48866 1.94261
lowerneck -5.76608 -4.46584 -14.8456
upperneck -13.9453 -3.10744 20.636
head -2.32072 -1.24074 9.04244
rclavicle 1.47101e-014 7.95139e-015
rhumerus -37.2177 -12.4248 -70.4675
rradius 60.0817
rwrist -11.4783
rhand -36.9801 35.5376
rfingers 7.12502
rthumb -10.0554 5.79782
lclavicle 1.47101e-014 7.95139e-015
lhumerus -33.8587 1.47729 74.8198
lradius 92.917
lwrist 2.75542
lhand -20.051 29.0248
lfingers 7.12502
lthumb 6.29057 58.9114
rfemur -37.5706 -5.71992 32.341
rtibia 49.287
rfoot -14.5462 -6.81398
rtoes 8.46551
lfemur 8.30262 11.7556 -2.76604
ltibia 94.361
lfoot -2.2571 8.0227
ltoes -14.4985
185
root 36.911 14.6631 -21.7861 -15.5903 100.815 -18.2946
lowerback 12.6938 -2.24648 -1.24866
upperback 8.55394 -2.56701 0.391712
thorax 1.94263 -1.12998 1.38764
lowerneck -4.92707 -4.63301 -14.4631
upperneck -14.9965 -3.34665 20.1538
head -2.75107 -1.41103 8.85192
rclavicle -4.51241e-014 1.78906e-014
rhumerus -36.9304 -13.52 -69.8225
rradius 59.9398
rwrist -10.7224
rhand -36.7193 36.032
rfingers 7.12502
rthumb -9.80385 6.28018
lclavicle -4.51241e-014 1.78906e-014
lhumerus -34.1461 1.3302 74.2887
lradius 94.9512
lwrist 3.00221
lhand -19.4724 28.9612
lfingers 7.12502
lthumb 6.8491 58.8304
rfemur -35.2156 -6.58001 34.4926
rtibia 49.9611
rfoot -17.1672 -6.40966
rtoes 3.74498
lfemur 5.55762 12.3869 0.665719
ltibia 97.8008
lfoot -1.66376 5.29889
ltoes -15.1613
186
root 37.3911 14.7318 -21.8594 -9.60789 100.489 -11.9911
lowerback 13.4029 -1.93705 0.183567
upperback 8.41568 -2.00713 0.719364
thorax 1.35409 -0.795859 0.888648
lowerneck -4.07019 -4.95011 -14.828
upperneck -15.8277 -3.7351 20.5322
head -3.03908 -1.64259 9.08935
rclavicle 3.26007e-014 1.07344e-014
rhumerus -37.0716 -14.7034 -69.2311
rradius 59.6556
rwrist -9.78555
rhand -36.9511 36.0588
rfingers 7.12502
rthumb -10.0275 6.31772
lclavicle 3.26007e-014 1.07344e-014
lhumerus -34.5487 1.25112 73.926
lradius 96.9121
lwrist 2.87764
lhand -18.9295 28.4477
lfingers 7.12502
lthumb 7.37322 58.2993
rfemur -32.8519 -7.1597 35.5905
rtibia 50.1219
rfoot -19.0051 -6.57882
rtoes 1.56748
lfemur 2.37967 12.9114 2.94085
ltibia 100.808
lfoot -1.00826 2.21383
ltoes -16.4944
187
root 37.8229 14.7244 -21.9207 -7.41755 101.005 -10.0658
lowerback 13.1469 -1.81618 0.237661
upperback 8.47179 -1.83951 0.938803
thorax 1.55337 -0.71379 1.05963
lowerneck -3.39582 -5.06396 -15.1212
upperneck -16.551 -3.80545 21.0709
head -3.31622 -1.71377 9.37656
rclavicle -2.34566e-014 1.43125e-014
rhumerus -36.3404 -15.633 -69.1376
rradius 59.1361
rwrist -8.95844
rhand -37.3053 35.2455
rfingers 7.12502
rthumb -10.3692 5.52114
lclavicle -2.34566e-014 1.43125e-014
lhumerus -34.5962 2.29963 73.6586
lradius 99.6717
lwrist 2.94009
lhand -18.2064 27.9137
lfingers 7.12502
lthumb 8.07113 57.7396
rfemur -31.8919 -7.41289 35.7613
rtibia 50.9803
rfoot -20.2634 -7.17873
rtoes 2.23202
lfemur -2.45114 12.4518 2.8572
ltibia 104.001
lfoot -0.611556 -0.371682
ltoes -17.2927
188
root 38.2141 14.6921 -21.9815 -5.14888 102.21 -8.87541
lowerback 12.4712 -1.86636 0.245322
upperback 8.0767 -1.94891 1.1167
thorax 1.50434 -0.788582 1.23866
lowerneck -2.53181 -5.07182 -14.7952
upperneck -17.0991 -3.87631 20.8376
head -3.63203 -1.806 9.28226
rclavicle -4.57205e-015 5.56597e-015
rhumerus -35.927 -16.2351 -69.2171
rradius 58.8506
rwrist -8.56458
rhand -37.456 34.7078
rfingers 7.12502
rthumb -10.5145 4.99082
lclavicle -4.57205e-015 5.56597e-015
lhumerus -34.5609 2.95603 73.2433
lradius 102.028
lwrist 3.93124
lhand -17.0749 28.1103
lfingers 7.12502
lthumb 9.16308 57.8912
rfemur -32.2817 -7.87144 35.8519
rtibia 52.2639
rfoot -21.2461 -7.77908
rtoes 4.13754
lfemur -8.96751 11.6666 1.98682
ltibia 107.204
lfoot -0.392654 -2.89338
ltoes -18.0212
189
root 38.6135 14.6564 -22.0397 -8.17349 104.117 -13.266
lowerback 11.5347 -1.96681 -1.03485
upperback 7.61498 -2.25462 0.955442
thorax 1.57531 -1.0046 1.7981
lowerneck -2.56547 -5.40891 -15.1004
upperneck -16.428 -4.40932 21.3394
head -3.296 -2.07856 9.46739
rclavicle 1.05356e-014 -8.34896e-015
rhumerus -35.6016 -16.6368 -69.491
rradius 58.7861
rwrist -8.67565
rhand -37.425 35.3809
rfingers 7.12502
rthumb -10.4847 5.66233
lclavicle 1.05356e-014 -8.34896e-015
lhumerus -34.0733 2.54357 73.0617
lradius 102.143
lwrist 1.30134
lhand -19.4434 28.0974
lfingers 7.12502
lthumb 6.87712 57.9657
rfemur -33.2257 -8.97735 34.5978
rtibia 54.1039
rfoot -22.6869 -8.2112
rtoes 5.52779
lfemur -15.9155 10.1289 -1.0611
ltibia 109.775
lfoot -0.341584 -4.29405
ltoes -20.3339
190
root 39.0305 14.7017 -22.0825 -3.83585 105.425 -10.3116
lowerback 10.556 -2.00307 -0.431009
upperback 7.02967 -2.30493 1.23429
thorax 1.47577 -1.03417 1.73011
lowerneck -2.21338 -5.83983 -15.5176
upperneck -16.1382 -5.06948 21.9094
head -3.10138 -2.43223 9.71944
rclavicle -5.92378e-014 1.98785e-014
rhumerus -35.5142 -16.7931 -69.7758
rradius 58.9494
rwrist -9.38345
rhand -36.7967 37.1191
rfingers 7.12502
rthumb -9.87846 7.37084
lclavicle -5.92378e-014 1.98785e-014
lhumerus -33.3216 1.97399 72.9157
lradius 102.087
lwrist -1.48628
lhand -21.7393 28.386
lfingers 7.12502
lthumb 4.66051 58.3148
rfemur -33.6358 -9.71575 35.4434
rtibia 55.0561
rfoot -24.1927 -8.44317
rtoes 6.90184
lfemur -22.9138 8.56649 -2.02814
ltibia 111.506
lfoot 0.0382274 -5.12369
ltoes -21.3873
191
root 39.4691 14.746 -22.1354 -3.70024 106.434 -11.8377
lowerback 9.11366 -1.80932 -0.871211
upperback 6.46766 -2.14575 1.17308
thorax 1.68255 -0.992598 1.8623
lowerneck -1.89246 -6.35294 -16.3057
upperneck -15.8116 -5.81368 22.9109
head -2.82687 -2.82306 10.1822
rclavicle 2.40529e-014 -1.19271e-014
rhumerus -35.6255 -16.3743 -70.0986
rradius 59.8957
rwrist -10.7014
rhand -36.4446 36.8516
rfingers 7.12502
rthumb -9.53877 7.0875
lclavicle 2.40529e-014 -1.19271e-014
lhumerus -32.53 1.44454 72.8512
lradius 102.136
lwrist -4.10506
lhand -23.5755 29.1725
lfingers 7.12502
lthumb 2.88728 59.1327
rfemur -33.9951 -10.1624 35.1345
rtibia 55.6938
rfoot -25.3072 -8.35289
rtoes 8.41
lfemur -29.4186 7.01399 -4.49106
ltibia 112.223
lfoot 0.707223 -4.7916
ltoes -20.4416
192
root 39.9415 14.8324 -22.2183 -3.84826 106.314 -11.0082
lowerback 9.91973 -1.4723 -0.580106
upperback 6.59208 -1.65703 1.09046
thorax 1.34104 -0.726563 1.59645
lowerneck -1.27541 -6.64226 -17.1424
upperneck -15.4643 -6.26699 24.2196
head -2.62441 -3.09702 10.7892
rclavicle 8.94531e-015 -4.6118e-014
rhumerus -35.7892 -15.5385 -70.6431
rradius 60.3057
rwrist -11.5626
rhand -36.0281 37.8759
rfingers 7.12502
rthumb -9.13692 8.09382
lclavicle 8.94531e-015 -4.6118e-014
lhumerus -31.9888 0.987578 72.4944
lradius 101.911
lwrist -6.11473
lhand -25.3684 29.6219
lfingers 7.12502
lthumb 1.15575 59.5985
rfemur -30.5491 -11.1925 34.9902
rtibia 55.2627
rfoot -25.8464 -7.69423
rtoes 7.2343
lfemur -31.3591 5.9075 -5.6351
ltibia 111.352
lfoot 0.921499 -4.06139
ltoes -19.6598
193
root 40.4165 14.9137 -22.3073 -3.28599 105.835 -9.19508
lowerback 10.8685 -1.06019 0.0307733
upperback 6.9019 -1.02081 1.07506
thorax 1.11614 -0.372754 1.1966
lowerneck -1.31269 -6.89504 -17.5746
upperneck -14.8053 -6.6742 24.9697
head -2.27445 -3.30364 11.084
rclavicle -2.76311e-014 1.03368e-014
rhumerus -35.6222 -14.7008 -71.3225
rradius 60.4247
rwrist -11.9197
rhand -35.6413 38.8204
rfingers 7.12502
rthumb -8.76364 9.02237
lclavicle -2.76311e-014 1.03368e-014
lhumerus -31.0526 0.583699 72.1157
lradius 101.493
lwrist -7.33546
lhand -27.1004 29.7464
lfingers 7.12502
lthumb -0.517046 59.7256
rfemur -26.7211 -11.9934 34.9516
rtibia 54.596
rfoot -25.6721 -6.75289
rtoes 5.56705
lfemur -32.6662 5.19608 -6.30562
ltibia 109.926
lfoot 0.867462 -3.03532
ltoes -18.3493
